<svg xmlns="http://www.w3.org/2000/svg" viewBox="0 0 1511.8 944.9"><defs><clipPath id="b" clipPathUnits="userSpaceOnUse"><path d="M0 708.7h1133.9V0H0z"/></clipPath><clipPath id="c" clipPathUnits="userSpaceOnUse"><path d="M91.4 518h332.1V214.2H91.4z"/></clipPath><clipPath id="a" clipPathUnits="userSpaceOnUse"><path d="M91.4 518h332.1V214.2H91.4z"/></clipPath></defs><g clip-path="url(#b)" transform="matrix(1.33333 0 0 -1.33333 0 944.9)"><path d="M631.4 505.7c-1.9 0-3.2-.3-4-.6-1-.3-1.5-.9-1.8-1.8a14 14 0 01-.5-4.3v-39.6c0-1.7.1-2.9.4-3.6.2-.8.7-1.3 1.4-1.5.6-.3 1.7-.4 3.1-.4h3.8c3.6 0 6.6 1.6 9.2 4.7 2.6 3.2 4.2 7.4 5 12.7h1.8l-.2-6.9c0-5 .2-9 .5-12.3l-17.8.2c-11.4 0-19.8 0-25.5-.2v1.5c1.8.1 3 .4 3.8.7.8.3 1.4.9 1.7 1.8.3.8.4 2.3.4 4.2V499c0 2-.1 3.4-.4 4.3-.3 1-.9 1.5-1.7 1.8-.8.3-2 .5-3.8.6v1.6a232.2 232.2 0 0124.6 0zM668.7 488.4c-1.2-2.3-2-5.9-2.3-10.7h12.3c0 4-.3 7.5-1.2 10.1-1 2.7-2.3 4-4.1 4-1.9 0-3.4-1.1-4.7-3.4m18.2-24.8l1.5-.4c-1-3.4-3-6.3-5.6-8.7-2.7-2.3-6-3.5-10-3.5a17 17 0 00-13.2 5.3c-3.2 3.5-4.9 8.7-4.9 15.5 0 7 1.8 12.4 5.3 16.1 3.4 3.7 8 5.6 13.8 5.6 9.8 0 14.7-5.8 14.7-17.3h-22v-3.7c0-3.4.5-6.3 1.5-8.6s2.2-4 3.7-5 3.2-1.5 5-1.5c4.2 0 7.6 2 10.2 6.2M714 492.8c1.6-.5 2.9-1 3.8-1.7.5-.4 1-.6 1.4-.6.4 0 .8.3 1.2.8.3.5.5 1.2.6 2.1h1.7c-.2-2.6-.3-7.2-.3-13.7h-1.7c-.4 3.4-1.5 6.3-3 8.6a7.9 7.9 0 01-7 3.5c-1.5 0-2.8-.5-3.8-1.3-1-1-1.5-2.1-1.5-3.7 0-1.8.6-3.3 1.8-4.6 1.1-1.2 3-2.8 5.6-4.6l2.2-1.7c3.2-2.3 5.5-4.5 7-6.3 1.6-2 2.3-4.3 2.3-7 0-2.4-.7-4.4-2-6.2a12.6 12.6 0 00-5.3-4 19 19 0 00-14.8.2c-1.6.9-2.8 1.4-3.6 1.7-.5.1-1 0-1.3-.5-.4-.5-.7-1.3-1-2.3h-1.6c.3 3 .4 8.2.4 15.6h1.6c1-9.5 4.5-14.3 10.5-14.3 1.5 0 2.8.4 3.9 1.3 1 1 1.6 2.3 1.6 4.2 0 1.5-.3 2.8-1 4a12 12 0 01-2.4 3l-4.5 3.6a96 96 0 00-5.3 4.6 16.2 16.2 0 00-3.2 4c-.8 1.6-1.2 3.3-1.2 5.2 0 3.4 1.3 6 3.9 8 2.6 1.8 5.7 2.8 9.5 2.8 2 0 3.8-.2 5.4-.7M605.5 432.3c-1.1-.5-2-1.4-2.4-2.7-.4-1.3-.6-3.5-.6-6.5v-58.5c0-3 .2-5.2.6-6.5a4 4 0 012.5-2.7c1.2-.5 3.1-.8 5.7-1v-2.3a365.3 365.3 0 01-37.1 0v2.3c2.8.2 4.9.5 6.2 1 1.3.5 2.1 1.4 2.6 2.7.5 1.3.7 3.5.7 6.5v61.7L555.3 352h-2l-31.8 76v-56.6c0-4.6.3-8 .7-10.2a7 7 0 013.1-4.7c1.6-1 4.1-1.7 7.7-2V352a176.4 176.4 0 01-23 0v2.3c2.6.4 4.5 1.1 5.7 2 1.2 1 2 2.5 2.5 4.5.4 2 .6 5.1.6 9.1v53.1c0 3-.2 5.2-.6 6.5a4 4 0 01-2.5 2.7c-1.2.5-3.1.8-5.7 1v2.3a417.6 417.6 0 0129 0l23.7-57.4 21.7 57h8.4c8 0 14.2.2 18.5.4v-2.3c-2.6-.2-4.6-.5-5.8-1M673.9 413v-2.3a9 9 0 01-4.5-3c-1.3-1.5-2.5-3.9-3.7-7.1l-21-59.4c-1.7-4-3.4-6.9-5.3-8.4-2.3-2-5.7-2.9-10.3-2.9-3.3 0-6.2.8-8.9 2.4-2.6 1.6-4 4-4 7 0 2.5 1 4.4 2.7 5.9 1.7 1.4 4 2.2 6.8 2.2a10 10 0 006.5-2 6.6 6.6 0 002.4-5.5c0-1.6-.5-3.1-1.6-4.5a9.4 9.4 0 00-4.3-3.1l2.7-.2c4.9 0 8.4 3.1 10.7 9.4l2 5.6L619 404a14.2 14.2 0 01-3.7 5.3 6.1 6.1 0 01-3.6 1.3v2.5a178.6 178.6 0 0132.6 0v-2.5c-2.6 0-4.4-.2-5.7-.5-1.2-.4-1.8-1.3-1.8-2.8 0-.9.3-2 .8-3.3l14.4-34.8 8.2 22.6c1.2 3.7 1.9 6.9 1.9 9.5 0 5.7-3 8.9-8.8 9.4v2.4a179.7 179.7 0 0120.6 0M707.6 413.6c2.5-.7 4.5-1.6 5.8-2.5.8-.6 1.5-.8 2.1-.8.7 0 1.3.3 1.9 1 .5.8.8 2 1 3.3h2.4c-.3-4-.4-11-.4-20.7h-2.5c-.7 5.1-2.3 9.5-4.7 13a11.9 11.9 0 01-10.4 5.2c-2.4 0-4.3-.6-5.9-2a7 7 0 01-2.3-5.5c0-2.7 1-5 2.8-7 1.8-1.8 4.6-4.2 8.4-7l3.5-2.4c4.8-3.6 8.3-6.9 10.6-9.7 2.3-2.8 3.4-6.4 3.4-10.6 0-3.5-1-6.5-3-9.2a19 19 0 00-8-6.1 28.8 28.8 0 00-22.4.3c-2.5 1.3-4.3 2-5.4 2.5-.8.2-1.5 0-2-.8-.7-.7-1.1-1.9-1.4-3.3h-2.5c.3 4.4.5 12.3.5 23.6h2.4c1.6-14.5 7-21.8 16-21.8 2.3 0 4.2.7 5.8 2.1 1.6 1.4 2.4 3.5 2.4 6.3 0 2.2-.5 4.2-1.4 6-1 1.7-2.3 3.2-3.8 4.5-1.5 1.4-3.7 3.2-6.7 5.6-3.5 2.8-6.2 5-8 6.8a24.5 24.5 0 00-4.8 6.1c-1.3 2.4-2 5-2 8 0 5 2 9 6 11.9 3.9 2.9 8.7 4.3 14.4 4.3 3 0 5.7-.3 8.2-1M754.5 413h13.9v-2.3h-14v-47.6c0-2.4.5-4 1.3-5s2.1-1.5 4-1.5c3.3 0 6 2.3 8 7l2-1c-3-8.1-8.4-12.2-16.2-12.2-5.2 0-9.1 1.4-11.8 4a12.7 12.7 0 00-3.3 6.2c-.6 2.5-1 6-1 10.2v40h-9.8v2.3h9.9v15.6a36 36 0 0117 3.7zM794.3 407c-1.9-3.5-3-8.9-3.5-16.2h18.5a45 45 0 01-1.8 15.4c-1.4 4-3.4 6-6.2 6-2.8 0-5.2-1.7-7-5.2m-3.7 43c1 0 2-.2 3-.7 1-.6 2-1.2 2.6-2.1a16 16 0 002.2-3.4l2.4-5.5c2.3-5.8 4.5-10.6 6.6-14.5l-1.3-1c-3.6 3.3-7.7 6.7-12.5 10-1.5 1-2.9 2.2-4.1 3.2-1.3 1.1-2.4 2.1-3.3 3.2a7.8 7.8 0 00-1.8 4.7c0 1.9.7 3.4 2.2 4.6 1 1 2.4 1.5 4 1.5m31.2-80.5l2.2-.7a28.2 28.2 0 00-8.5-13 22 22 0 00-15.1-5.4c-8.4 0-15 2.7-20 8-4.8 5.3-7.3 13.2-7.3 23.5 0 10.7 2.6 18.8 8 24.4a27.4 27.4 0 0021 8.4c14.7 0 22.1-8.7 22.1-26.2H791V383c0-5.2.7-9.5 2.1-13 1.5-3.4 3.4-6 5.7-7.5 2.3-1.6 4.8-2.4 7.5-2.4 6.4 0 11.6 3.2 15.5 9.4M879 411.6c1.8-2.2 2.7-4.7 2.7-7.7s-.9-5.3-2.6-7.2a8.6 8.6 0 00-6.6-2.7c-2.7 0-4.8.7-6.4 2a7 7 0 00-2.4 5.5c0 3.8 1.8 6.9 5.2 9.2l-1.4.1c-.8 0-1.4 0-1.9-.2-3-.5-5.5-2.3-7.6-5.4-2-3.2-3.1-6.4-3.1-9.7v-31.3c0-3.6.9-6.1 2.6-7.5 1.8-1.4 4.6-2.1 8.5-2.1V352l-2.7.1-16 .4a625 625 0 01-17-.5v2.5c2.9 0 4.8.6 6 1.8 1 1.2 1.6 3.4 1.6 6.7v37.1c0 3.6-.6 6.3-1.7 8-1 1.6-3 2.4-5.9 2.4v2.5a78.4 78.4 0 0124.6 1.3v-11a20 20 0 006.5 8.2c2.8 2.1 6 3.1 9.5 3.1 3.6 0 6.2-1 8-3.1M906.5 407c-1.8-3.5-3-8.9-3.5-16.2h18.5a45 45 0 01-1.8 15.4c-1.4 4-3.4 6-6.2 6-2.8 0-5.1-1.7-7-5.2m27.6-37.5l2-.7a28.2 28.2 0 00-8.4-13 22 22 0 00-15.1-5.4c-8.4 0-15 2.7-19.9 8-5 5.3-7.4 13.2-7.4 23.5 0 10.7 2.7 18.8 8 24.4a27.4 27.4 0 0021 8.4c14.7 0 22.1-8.7 22.1-26.2h-33.1l-.2-5.5c0-5.2.8-9.5 2.2-13 1.5-3.4 3.4-6 5.7-7.5 2.3-1.6 4.8-2.4 7.5-2.4 6.4 0 11.6 3.2 15.6 9.4M974.9 413.6c2.5-.7 4.4-1.6 5.8-2.5.8-.6 1.5-.8 2-.8.8 0 1.4.3 2 1 .4.8.8 2 1 3.3h2.4c-.3-4-.5-11-.5-20.7h-2.5c-.7 5.1-2.2 9.5-4.6 13A11.9 11.9 0 01970 412c-2.3 0-4.3-.6-5.8-2a7 7 0 01-2.3-5.5c0-2.7 1-5 2.7-7 1.8-1.8 4.7-4.2 8.5-7l3.4-2.4c4.8-3.6 8.4-6.9 10.7-9.7 2.2-2.8 3.4-6.4 3.4-10.6 0-3.5-1-6.5-3-9.2a19 19 0 00-8.1-6.1 28.8 28.8 0 00-22.3.3c-2.5 1.3-4.3 2-5.4 2.5-.8.2-1.5 0-2.1-.8-.6-.7-1-1.9-1.4-3.3H946c.3 4.4.4 12.3.4 23.6h2.5c1.6-14.5 6.9-21.8 16-21.8 2.2 0 4.2.7 5.8 2.1 1.6 1.4 2.4 3.5 2.4 6.3 0 2.2-.5 4.2-1.5 6-1 1.7-2.2 3.2-3.7 4.5-1.5 1.4-3.7 3.2-6.7 5.6-3.6 2.8-6.3 5-8.1 6.8a24.5 24.5 0 00-4.7 6.1c-1.3 2.4-2 5-2 8 0 5 2 9 6 11.9 3.9 2.9 8.7 4.3 14.3 4.3 3 0 5.8-.3 8.3-1M538.4 257.1a9.8 9.8 0 012.9 6.2v33.3a8 8 0 01-7 3.3c-3.4 0-6-2-7.8-5.8a41.2 41.2 0 01-2.7-17.4c0-7.7.7-13.3 2.3-16.7 1.5-3.4 3.8-5.2 6.7-5.2 2 0 4 .8 5.6 2.3m17.9-1c.9-1.3 2.5-2 4.8-2v-2a61.4 61.4 0 01-19.8-1v8.2a12.2 12.2 0 00-12.4-8.6c-6 0-10.7 2.2-14.3 6.6-3.5 4.3-5.2 10.9-5.1 19.6a33 33 0 002.7 14.2 19.5 19.5 0 0018.5 11.5c4.6 0 8.1-1.2 10.6-3.6v16.2c0 3-.5 5-1.4 6.4-1 1.3-2.5 2-4.7 2v2a63.4 63.4 0 0119.8 1v-64c0-3 .4-5 1.3-6.4M583.4 296.4a34 34 0 01-2.8-13h15c0 5-.4 9-1.5 12.3-1.2 3.3-2.8 5-5 5-2.3 0-4.2-1.5-5.7-4.3m22.2-30.2l1.7-.6a22.7 22.7 0 00-6.8-10.5 17.8 17.8 0 00-12.2-4.4c-6.7 0-12 2.2-16 6.5s-6 10.6-6 19c0 8.5 2.1 15 6.4 19.6 4.2 4.6 9.9 6.8 17 6.8 11.9 0 17.8-7 17.8-21.1h-26.7l-.1-4.5c0-4.2.6-7.7 1.7-10.4 1.2-2.8 2.7-4.9 4.6-6.1 1.9-1.3 3.9-2 6-2 5.3 0 9.4 2.6 12.6 7.7M678.3 271c0 5-1.3 8.8-3.8 11.4-2.6 2.6-6.6 3.9-12 3.9h-4v-24.1c0-2.3.1-4 .4-5 .4-1.2 1-1.9 1.9-2.3 1-.4 2.3-.6 4.2-.6 8.9 0 13.3 5.5 13.3 16.6m-17.7 46c-.8-.4-1.3-1.2-1.7-2.4-.3-1.1-.4-2.8-.4-5.1v-21.5h4c4.2 0 7 1.4 8.7 4.2 1.7 2.8 2.5 6.6 2.5 11.3 0 4.8-.8 8.3-2.2 10.7-1.5 2.3-3.9 3.5-7.1 3.5a8 8 0 01-3.8-.7m27.7-35.1c3.8-3.2 5.8-7 5.8-11.2 0-6-2.4-10.5-7-13.7-4.6-3.2-11-4.8-19.3-4.8H663a405.5 405.5 0 01-27 0v1.9c2.2.1 3.7.4 4.7.7 1 .4 1.6 1.2 2 2.2.3 1.1.5 2.9.5 5.3v47.2c0 2.4-.2 4.2-.5 5.2-.4 1.1-1 1.8-2 2.2-1 .4-2.5.7-4.6.8v1.9c3.2-.2 8-.3 14.5-.3l10.5.1 4.4.1c7.6 0 13.4-1.4 17.5-4.1 4-2.7 6-6.3 6-10.9 0-3.6-1.6-7-4.8-10.2-3.2-3.2-8-5.4-14.2-6.5v-.2c8.2-.6 14.3-2.5 18.2-5.7M717.3 294.8c-1.7-4-2.5-10-2.5-18.2 0-8 .8-14.1 2.5-18 1.6-4 3.7-6 6.5-6s5 2 6.5 6c1.6 3.8 2.4 9.9 2.4 18 0 8.2-.8 14.3-2.4 18.2-1.6 4-3.8 6-6.5 6-2.8 0-5-2-6.5-6m23.6 1.6c4.1-4.2 6.2-10.7 6.2-19.8 0-9-2-15.5-6.2-19.7a23.2 23.2 0 00-17.1-6.2c-7.3 0-13 2.1-17.1 6.2-4.2 4.2-6.3 10.7-6.3 19.7s2.1 15.6 6.3 19.8c4.1 4.2 9.8 6.2 17 6.2 7.4 0 13-2 17.2-6.2M800.4 262.5c0-3 .5-5 1.4-6.4 1-1.4 2.5-2 4.7-2v-2l-5.9.3c-5.5 0-10.2-.5-13.9-1.4v8.6c-3-5.9-8-8.9-15.3-8.9-4.8 0-8.2 1.3-10.4 3.8-1 1.2-1.8 2.7-2.2 4.7-.5 2-.8 4.5-.8 7.6V291c0 3-.4 5-1.3 6.4-1 1.3-2.5 2-4.7 2v2a61.3 61.3 0 0119.8 1V263c0-2.6.4-4.6 1.1-6 .8-1.3 2.3-2 4.6-2 2.5 0 4.7 1.1 6.5 3.2 1.8 2.2 2.7 4.8 2.7 7.9v25c0 2.8-.5 5-1.4 6.3-.9 1.3-2.5 2-4.7 2v2a63 63 0 0119.8 1zM850 300a9.2 9.2 0 002.1-6.1c0-2.4-.7-4.3-2-5.8a7 7 0 00-5.4-2.2c-2.2 0-3.9.5-5.2 1.6a5.6 5.6 0 00-1.9 4.5c0 3 1.4 5.5 4.2 7.4a5 5 0 01-1.1.1 5 5 0 01-1.5-.2c-2.4-.4-4.5-1.8-6.2-4.4a14 14 0 01-2.5-7.8V262c0-3 .7-5 2.1-6.1 1.5-1.1 3.7-1.7 6.8-1.7v-2h-2.1l-13 .4a503.6 503.6 0 01-13.6-.4v2c2.3 0 3.9.5 4.8 1.5.8 1 1.3 2.7 1.3 5.3v30c0 3-.5 5-1.3 6.4-1 1.3-2.5 2-4.8 2v2a63.4 63.4 0 0119.8 1v-8.8c1.2 2.7 3 5 5.2 6.6 2.3 1.7 4.9 2.5 7.7 2.5 2.9 0 5-.8 6.5-2.5M878.6 277.1c1 2 1.4 5.5 1.4 10.4s-.5 8.3-1.4 10.4c-.9 2-2.2 3-4 3-1.8 0-3.1-1-4-3-1-2-1.4-5.5-1.4-10.4s.4-8.3 1.3-10.4c1-2 2.3-3 4-3 1.9 0 3.2 1 4.1 3m18.4 16.4c-.8.8-1.3 2-1.3 3.6 0 1.5.4 3 1.2 4.7-1.6-.7-2.8-1.4-3.8-2.2-1-.8-1.8-1.8-2.5-3 2-2.3 3-5.4 3-9.1 0-5-1.8-8.8-5.3-11.3-3.4-2.6-8-3.8-13.7-3.8h-1.7c-2.6-1.6-4-3.2-4-5 0-2.1 1.3-3.1 3.9-3.1H883c5.6 0 10-1 13.4-3.1 3.4-2 5-5.2 5-9.5 0-3.2-1-6.2-3-8.8a21 21 0 00-9.4-6.3 43.8 43.8 0 00-15.5-2.4 39 39 0 00-14.8 2.3c-3.7 1.6-5.5 3.8-5.5 6.7 0 2 .8 3.8 2.6 5.3a19 19 0 008 3.7l.8-1.5c-2.3-2-3.4-4.1-3.4-6.6 0-2.7 1.2-4.7 3.6-6.2 2.4-1.4 5.7-2.1 10-2.1 4.4 0 8 .9 10.8 2.7a8.5 8.5 0 014.1 7.5 6 6 0 01-2.3 5c-1.6 1.1-4.3 1.7-8.2 1.7h-5.9c-4 0-7.2.7-9.5 2.1a6.8 6.8 0 00-3.4 6.2c0 2.4.8 4.5 2.5 6.3 1.6 1.9 4.1 3.6 7.5 5.3a19 19 0 00-10.9 4.6c-2.6 2.5-4 6-4 10.3 0 5 1.8 8.8 5.2 11.3 3.5 2.6 8 3.8 13.8 3.8 6.3 0 11.2-1.5 14.5-4.4 1.3 1.7 2.7 3 4.5 4 1.8 1 3.6 1.6 5.4 1.6 2 0 3.5-.6 4.6-1.7a5.9 5.9 0 001.6-4.3c0-1.8-.5-3.2-1.4-4.2-1-1-2.2-1.4-3.5-1.4-1.3 0-2.4.4-3.2 1.3M924.6 296.4a34 34 0 01-2.8-13h15c0 5-.4 9-1.5 12.3-1.1 3.3-2.8 5-5 5-2.3 0-4.2-1.5-5.7-4.3m22.2-30.2l1.8-.6a22.7 22.7 0 00-6.8-10.5 17.8 17.8 0 00-12.3-4.4c-6.7 0-12 2.2-16 6.5s-6 10.6-6 19c0 8.5 2.1 15 6.4 19.6 4.3 4.6 9.9 6.8 17 6.8 11.9 0 17.8-7 17.8-21.1H922l-.1-4.5c0-4.2.6-7.7 1.8-10.4 1.1-2.8 2.7-4.9 4.5-6.1 1.9-1.3 4-2 6-2 5.3 0 9.5 2.6 12.6 7.7M979.8 301.7c2-.6 3.6-1.3 4.7-2a3 3 0 011.7-.7c.5 0 1 .3 1.4 1 .5.5.7 1.4.9 2.5h2c-.3-3.2-.4-8.8-.4-16.7h-2c-.6 4.2-1.9 7.7-3.8 10.5a9.6 9.6 0 01-8.4 4.2 7 7 0 01-4.7-1.6 5.6 5.6 0 01-1.9-4.4c0-2.2.7-4 2.2-5.6a48 48 0 016.9-5.7l2.7-2c3.9-2.9 6.7-5.5 8.6-7.8 1.8-2.3 2.8-5.1 2.8-8.6a12 12 0 00-2.5-7.4 15.4 15.4 0 00-6.5-5 23.2 23.2 0 00-18 .3 47 47 0 01-4.4 2c-.6.2-1.2 0-1.6-.6-.5-.6-.9-1.5-1.1-2.7h-2c.2 3.6.3 10 .3 19h2c1.3-11.6 5.6-17.5 12.9-17.5a7 7 0 014.7 1.7c1.3 1.1 2 2.8 2 5.1 0 1.8-.4 3.4-1.2 4.8-.8 1.4-1.8 2.6-3 3.7l-5.5 4.4-6.5 5.6c-1.5 1.4-2.7 3-3.8 5a13 13 0 00-1.6 6.3c0 4 1.6 7.3 4.8 9.6a19 19 0 0011.6 3.5c2.4 0 4.7-.3 6.7-.9" fill="#393536"/><path d="M1038.7 262.3a11 11 0 10-22.1 0 11 11 0 0022.1 0M577.9 480h-14.3v14.5a1.3 1.3 0 11-2.6 0V480h-14.3a1.3 1.3 0 110-2.6H561v-14.2a1.3 1.3 0 112.6 0v14.2H578a1.3 1.3 0 110 2.6" fill="#f03d41"/><path d="M546.7 479.6a.8.8 0 010-1.6h14.8v-14.7a.8.8 0 011.6 0V478H578a.8.8 0 010 1.6H563v14.9a.8.8 0 01-1.6 0v-15zm15.6-18c-1 0-1.8.7-1.8 1.7V477h-13.8a1.8 1.8 0 000 3.6h13.8v13.9a1.8 1.8 0 003.6 0v-14H578a1.8 1.8 0 000-3.5H564v-13.7c0-1-.8-1.8-1.8-1.8" fill="#f03d41"/><path d="M350.6 188.4L168.6 330l.6.8 182-141.6zM256 423l-1 .3 31.6 121 1-.3z" fill="#918f90"/><path d="M180.5 196.3l-12.1 134 1 .2 12-134.1z" fill="#918f90"/><path d="M181.3 196l-.6.7 109.1 102 .7-.7zM351.3 188.5l-.8.5 109.1 171.7.9-.5zM59.5 285l-.3.9 109.5 46 .4-1z" fill="#918f90"/><path d="M350.9 189.3l-170 6.5.1 1 170-6.5zM168.2 331l-.7.8 87.6 91.7.8-.7z" fill="#918f90"/><path d="M416.5 264.8a22.2 22.2 0 10-44.5 0 22.2 22.2 0 0044.5 0M228.5 475a95.4 95.4 0 10-190.7 0 95.4 95.4 0 00190.7 0" fill="#f03d41"/><path d="M350.4 188.7L286.6 544l1 .2 63.8-355.3z" fill="#918f90"/><path d="M392.3 503.9v-1.5c1.9 0 3.7-.3 5.5-.8l.4 1.5a23.2 23.2 0 01-4.8.7h-.1H393h-.7zm17.6-8.1l-1.1-1c2.9-3.4 4.6-7.5 5-11.9l1.6.2-.4 2.3v.5h-.1v.4h-.1v.4h-.1V487h-.1v.4h-.1V487.8h-.1V488h-.1V488.4h-.1V488.7h-.1v.2h-.1V489.2h-.1v.2h-.1V489.7h-.1v.2h-.1v.2h-.1V490.4h-.1c-1 2-2.1 3.8-3.5 5.5m1.5-25.5c-2.1-3.9-5.3-7-9.2-9l.7-1.4 3 1.9a6.3 6.3 0 01.1 0v.1h.1l.1.1.2.1v.1h.1v.1h.1l.1.1h.1v.1h.1v.1h.1v.1h.1v.1h.2v.1h.1v.1h.1v.1h.1v.1h.1v.1h.1v.1h.1v.1h.1l.1.1h.1v.1h.1v.1h.1v.1h.1v.1h.1v.1h.1v.1h.1v.1h.1v.1h.1v.1h.1v.1h.1v.1l.1.1v.1h.1v.1h.1v.1h.1v.1h.1v.1h.1v.1h.1v.1h.1v.2h.1v.1h.1v.1h.1v.1h.1a.1.1 0 010 .1l.1.1v.1h.1v.1a.1.1 0 00.1 0v.1l.1.1.1.1v.1c.2.1.2.2.3.4l1.5 2.4zm-33.7-5.9l-1-1c2.7-2.4 5.9-4.2 9.4-5.2h.4v-.1h.4v-.1h.4v-.1h.2l1.8-.3.2 1.5c-4.4.5-8.5 2.4-11.8 5.3m-7.1 24.5c-.5-1.1-.8-2.3-1-3.6h-.1v-.2-.1-.2h-.1v-.1-.2-.1-.1-.1h-.1v-.1-.1-.1-.1-.1-.1-.1h-.1v-.1-.1-.1-.1-.1-.1-.1-.1-.1-.1-.1h-.1v-.1-.1-.1-.1-.1-.1-.1-.2-.1-.1V480.2v-.2V479.7 479.4v-.1-.2V478.8v-.1-.1-.2-.1-.1c.2-1.1.3-2.1.6-3.1l1.4.3a21.9 21.9 0 00.9 12.9zm21.7 15h-.4-.2H390.8h-.1v-.1h-.1-.1-.1H390.1h-.1-.2-.2l-.1-.1h-.1-.4c-3.7-.6-7-2-10-4l.9-1.2c3.6 2.5 7.8 3.9 12.3 3.9z" fill="#f03d41"/><path d="M458.7 361.1l-172 182.7.7.6 172-182.6z" fill="#918f90"/><path d="M400.3 481h-5.5v5.6a.5.5 0 11-1 0V481h-5.6a.5.5 0 010-1h5.6v-5.5a.5.5 0 111 0v5.5h5.5a.5.5 0 010 1" fill="#f03d41"/><path d="M388.2 480.5h6v-6 6h6.1zm6-7a1 1 0 00-1 1v5h-5a1 1 0 000 2h5v5.1a1 1 0 002 0v-5h5.1a1 1 0 000-2h-5v-5.1c0-.6-.5-1-1-1" fill="#f03d41"/><path d="M290.3 297.9l-.3.9 168.9 63.1.3-1z" fill="#918f90"/><path d="M398.2 269.5l-3.9-4-4 4a.5.5 0 01-.7-.7l4-4-4-4a.5.5 0 01.8-.6l3.9 4 4-4a.5.5 0 01.6.7l-3.9 4 4 3.8a.5.5 0 01-.8.8" fill="#fff"/><path d="M390 259.5a1 1 0 00-.7 1.7l3.6 3.6-3.6 3.6a1 1 0 001.4 1.4l3.6-3.6 3.6 3.6a1 1 0 101.4-1.4l-3.6-3.6 3.6-3.5c.2-.2.3-.5.3-.7a1 1 0 00-1.7-.7l-3.6 3.5-3.6-3.6a1 1 0 00-.7-.3" fill="#fff"/><path d="M349.5 189.6L320 263l1 .4 29.4-73.5zM334.1 399l-78.8 23.7.3 1 78.8-23.8z" fill="#918f90"/><path d="M132 479.6a22.2 22.2 0 10-44.5 0 22.2 22.2 0 0044.4 0" fill="#fff"/><path d="M115.8 481h-5.6v5.6a.5.5 0 11-1 0V481h-5.6a.5.5 0 010-1h5.6v-5.5a.5.5 0 111 0v5.5h5.6a.5.5 0 010 1" fill="#f03d41"/><path d="M103.6 480.5h6.1v-6 6h6zm6.1-7a1 1 0 00-1 1v5h-5a1 1 0 000 2h5v5.1a1 1 0 002 0v-5h5a1 1 0 000-2h-5v-5.1c0-.6-.4-1-1-1" fill="#f03d41"/><path d="M381.7 498.1c-4-2-5.7-4.4-7.7-9.2a62.8 62.8 0 01-2.3-21V277.5c0-9.7.8-16.8 2.3-21.1 1.5-4.4 3.7-6.8 7.5-9.3a29.3 29.3 0 0121.3-2.6v-7.7a794 794 0 01-48.8 1.2c-22 0-38.3-.4-49-1.2v7.7c9.2.5 15.9 1.5 20 3 4.3 1.6 7.2 4.5 8.7 8.9a69.2 69.2 0 012.3 21v205.7L243.6 235h-6.2l-96.6 249V281.4c0-10 .8-17.4 2.5-22.2 1.6-4.9 4.9-8.4 9.7-10.6a66.9 66.9 0 0122.7-4v-7.7c-9.2.8-22.3 1.2-39.2 1.2-15.3 0-27.2-.4-35.6-1.2v7.7c9 .5 15.6 1.8 20 4a17 17 0 018.7 10.8c1.6 5 2.3 12.3 2.3 22v186.4c0 9.8-.7 16.8-2.3 21.1-1.5 4.4-5.5 9-9.7 10.5-4.3 1.5-6.1 3.7-19 .6v8.5c8.4-.8 20.3-1.1 35.6-1.1 13.3 0 24.2.3 32.6 1.1l84.4-222.1 82.5 221h18c20.8 0 37 .3 48.8 1.1v-8.3c-11.4 1.8-16 .4-21-2" fill="#393536"/><path d="M350.8 189.3L59.2 285l.3.9 291.6-95.6z" fill="#918f90"/><path d="M247.2 244.8l-13.2-36a68.3 68.3 0 00-16-27.2 33.3 33.3 0 00-13.5-8 58.4 58.4 0 00-16-2.7c-7.8-.2-14 1.7-19 5.7s-7.5 9.5-7.7 16.7a20.3 20.3 0 005 14.9c3.5 3.8 8.5 5.7 14.8 5.9 5.7.1 10.4-1.4 14.2-4.5 3.7-3 5.7-7.5 5.8-13 .2-7.8-3.1-13.6-10-17.6.6-.2 1.4-.3 2.4-.3 14 .3 24.7 10.5 31.9 30.7l12.6 35.2" fill="#393536"/><path d="M459.9 361l-126.7 38.2.3 1 126.7-38.3z" fill="#918f90"/><path d="M64.9 285.4h-5.5v5.6a.5.5 0 11-1 0v-5.6h-5.6a.5.5 0 010-1h5.6V279a.5.5 0 111 0v5.5h5.5a.5.5 0 010 1" fill="#f25149"/><path d="M52.8 285h6v-6.1 6H65zm6-7.1a1 1 0 00-1 1v5h-5a1 1 0 000 2h5v5.1a1 1 0 002 0v-5H65a1 1 0 000-2h-5v-5.1c0-.5-.5-1-1-1" fill="#f25149"/><path d="M356.5 189.8h-5.6v5.6a.5.5 0 11-1 0v-5.6h-5.6a.5.5 0 010-1h5.6v-5.5a.5.5 0 111 0v5.5h5.6a.5.5 0 010 1" fill="#f03d41"/><path d="M344.3 189.3h6.1v-6 6h6zm6.1-7a1 1 0 00-1 1v5h-5a1 1 0 000 2h5v5a1 1 0 002 0v-5h5a1 1 0 000-2h-5v-5c0-.6-.4-1-1-1M293.6 544.1h-5.5v5.6a.5.5 0 11-1 0v-5.6h-5.6a.5.5 0 010-1h5.6v-5.5a.5.5 0 111 0v5.5h5.5a.5.5 0 010 1" fill="#f03d41"/><path d="M281.5 543.6h6v-6 6h6.1zm6-7a1 1 0 00-1 1v5h-5a1 1 0 000 2h5v5.1a1 1 0 002 0v-5.1h5.1a1 1 0 000-2h-5v-5c0-.6-.5-1-1-1M465.6 361.5H460v5.6a.5.5 0 11-1 0v-5.6h-5.5a.5.5 0 010-1h5.5v-5.6a.5.5 0 111 0v5.6h5.6a.5.5 0 010 1" fill="#f03d41"/><path d="M453.5 361h6v-6 6h6.1zm6-7a1 1 0 00-1 1v5h-5a1 1 0 000 2h5v5a1 1 0 002 0v-5h5.1a1 1 0 000-2h-5v-5c0-.6-.5-1-1-1M174.4 331.4H169v5.6a.5.5 0 11-1 0v-5.6h-5.6a.5.5 0 010-1h5.6V325a.5.5 0 111 0v5.5h5.5a.5.5 0 010 1" fill="#f03d41"/><path d="M162.3 331h6v-6 6h6.1zm6-7a1 1 0 00-1 1v5h-5a1 1 0 000 2h5v5a1 1 0 002 0v-5h5.1a1 1 0 000-2h-5v-5c0-.6-.5-1-1-1M295.7 298.3h-5.5v5.6a.5.5 0 11-1 0v-5.6h-5.6a.5.5 0 010-1h5.6v-5.5a.5.5 0 111 0v5.5h5.5a.5.5 0 010 1" fill="#f03d41"/><path d="M283.6 297.8h6v-6 6h6.1zm6-7a1 1 0 00-1 1v5h-5a1 1 0 000 2h5v5.1a1 1 0 002 0v-5h5.1a1 1 0 000-2h-5v-5.1c0-.5-.5-1-1-1M187.5 196.3H182v5.6a.5.5 0 11-1 0v-5.6h-5.6a.5.5 0 010-1h5.6v-5.5a.5.5 0 111 0v5.5h5.5a.5.5 0 010 1" fill="#f03d41"/><path d="M175.4 195.8h6.1v-6 6h6zm6.1-7a1 1 0 00-1 1v5h-5a1 1 0 000 2h5v5.1a1 1 0 002 0v-5h5a1 1 0 000-2h-5v-5c0-.6-.5-1-1-1" fill="#f03d41"/><path d="M320.2 262.6L256 423l1 .3L321.2 263z" fill="#918f90"/><path d="M262 423.2h-5.5v5.6a.5.5 0 11-1 0v-5.6h-5.6a.5.5 0 010-1h5.6v-5.6a.5.5 0 111 0v5.6h5.5a.5.5 0 010 1" fill="#f03d41"/><g><path d="M250 422.7h6v-6 6h6zm6-7a1 1 0 00-1 1v5h-5a1 1 0 000 2h5v5a1 1 0 002 0v-5h5a1 1 0 000-2h-5v-5c0-.6-.5-1-1-1" fill="#f03d41"/></g></g></svg>